0
SECTION
2
HEADER
9
$INSUNITS
70
4
0
ENDSEC
0
SECTION
2
TABLES
0
TABLE
2
LTYPE
0
LTYPE
72
65
70
64
2
CONTINUOUS
3
______
73
0
40
0
0
ENDTAB
0
TABLE
2
LAYER
0
ENDTAB
0
ENDSEC
0
SECTION
2
ENTITIES
0
LINE
8
0
10
-8.25
20
-8.25
11
8.25
21
-8.25
0
LINE
8
0
10
8.25
20
-8.25
11
8.25
21
8.25
0
LINE
8
0
10
8.25
20
8.25
11
-8.25
21
8.25
0
LINE
8
0
10
-8.25
20
8.25
11
-8.25
21
-8.25
0
LINE
8
0
10
-8.25
20
9.25
11
8.25
21
9.25
0
LINE
8
0
10
8.25
20
9.25
11
8.25
21
25.75
0
LINE
8
0
10
8.25
20
25.75
11
-8.25
21
25.75
0
LINE
8
0
10
-8.25
20
25.75
11
-8.25
21
9.25
0
LINE
8
0
10
-8.25
20
26.75
11
8.25
21
26.75
0
LINE
8
0
10
8.25
20
26.75
11
8.25
21
43.25
0
LINE
8
0
10
8.25
20
43.25
11
-8.25
21
43.25
0
LINE
8
0
10
-8.25
20
43.25
11
-8.25
21
26.75
0
LINE
8
0
10
9.25
20
-8.25
11
25.75
21
-8.25
0
LINE
8
0
10
25.75
20
-8.25
11
25.75
21
8.25
0
LINE
8
0
10
25.75
20
8.25
11
9.25
21
8.25
0
LINE
8
0
10
9.25
20
8.25
11
9.25
21
-8.25
0
LINE
8
0
10
9.25
20
9.25
11
25.75
21
9.25
0
LINE
8
0
10
25.75
20
9.25
11
25.75
21
25.75
0
LINE
8
0
10
25.75
20
25.75
11
9.25
21
25.75
0
LINE
8
0
10
9.25
20
25.75
11
9.25
21
9.25
0
LINE
8
0
10
9.25
20
26.75
11
25.75
21
26.75
0
LINE
8
0
10
25.75
20
26.75
11
25.75
21
43.25
0
LINE
8
0
10
25.75
20
43.25
11
9.25
21
43.25
0
LINE
8
0
10
9.25
20
43.25
11
9.25
21
26.75
0
LINE
8
0
10
26.75
20
-3.488
11
43.25
21
-3.488
0
LINE
8
0
10
43.25
20
-3.488
11
43.25
21
13.012
0
LINE
8
0
10
43.25
20
13.012
11
26.75
21
13.012
0
LINE
8
0
10
26.75
20
13.012
11
26.75
21
-3.488
0
LINE
8
0
10
26.75
20
14.012
11
43.25
21
14.012
0
LINE
8
0
10
43.25
20
14.012
11
43.25
21
30.512
0
LINE
8
0
10
43.25
20
30.512
11
26.75
21
30.512
0
LINE
8
0
10
26.75
20
30.512
11
26.75
21
14.012
0
LINE
8
0
10
26.75
20
31.512
11
43.25
21
31.512
0
LINE
8
0
10
43.25
20
31.512
11
43.25
21
48.012
0
LINE
8
0
10
43.25
20
48.012
11
26.75
21
48.012
0
LINE
8
0
10
26.75
20
48.012
11
26.75
21
31.512
0
LINE
8
0
10
44.25
20
-1.107
11
60.75
21
-1.107
0
LINE
8
0
10
60.75
20
-1.107
11
60.75
21
15.393
0
LINE
8
0
10
60.75
20
15.393
11
44.25
21
15.393
0
LINE
8
0
10
44.25
20
15.393
11
44.25
21
-1.107
0
LINE
8
0
10
44.25
20
16.393
11
60.75
21
16.393
0
LINE
8
0
10
60.75
20
16.393
11
60.75
21
32.893
0
LINE
8
0
10
60.75
20
32.893
11
44.25
21
32.893
0
LINE
8
0
10
44.25
20
32.893
11
44.25
21
16.393
0
LINE
8
0
10
44.25
20
33.893
11
60.75
21
33.893
0
LINE
8
0
10
60.75
20
33.893
11
60.75
21
50.393
0
LINE
8
0
10
60.75
20
50.393
11
44.25
21
50.393
0
LINE
8
0
10
44.25
20
50.393
11
44.25
21
33.893
0
LINE
8
0
10
61.75
20
-3.488
11
78.25
21
-3.488
0
LINE
8
0
10
78.25
20
-3.488
11
78.25
21
13.012
0
LINE
8
0
10
78.25
20
13.012
11
61.75
21
13.012
0
LINE
8
0
10
61.75
20
13.012
11
61.75
21
-3.488
0
LINE
8
0
10
61.75
20
14.012
11
78.25
21
14.012
0
LINE
8
0
10
78.25
20
14.012
11
78.25
21
30.512
0
LINE
8
0
10
78.25
20
30.512
11
61.75
21
30.512
0
LINE
8
0
10
61.75
20
30.512
11
61.75
21
14.012
0
LINE
8
0
10
61.75
20
31.512
11
78.25
21
31.512
0
LINE
8
0
10
78.25
20
31.512
11
78.25
21
48.012
0
LINE
8
0
10
78.25
20
48.012
11
61.75
21
48.012
0
LINE
8
0
10
61.75
20
48.012
11
61.75
21
31.512
0
LINE
8
0
10
79.25
20
-5.869
11
95.75
21
-5.869
0
LINE
8
0
10
95.75
20
-5.869
11
95.75
21
10.631
0
LINE
8
0
10
95.75
20
10.631
11
79.25
21
10.631
0
LINE
8
0
10
79.25
20
10.631
11
79.25
21
-5.869
0
LINE
8
0
10
79.25
20
11.631
11
95.75
21
11.631
0
LINE
8
0
10
95.75
20
11.631
11
95.75
21
28.131
0
LINE
8
0
10
95.75
20
28.131
11
79.25
21
28.131
0
LINE
8
0
10
79.25
20
28.131
11
79.25
21
11.631
0
LINE
8
0
10
79.25
20
29.131
11
95.75
21
29.131
0
LINE
8
0
10
95.75
20
29.131
11
95.75
21
45.631
0
LINE
8
0
10
95.75
20
45.631
11
79.25
21
45.631
0
LINE
8
0
10
79.25
20
45.631
11
79.25
21
29.131
0
LINE
8
0
10
53
20
-23.369
11
69.5
21
-23.369
0
LINE
8
0
10
69.5
20
-23.369
11
69.5
21
-6.869
0
LINE
8
0
10
69.5
20
-6.869
11
53
21
-6.869
0
LINE
8
0
10
53
20
-6.869
11
53
21
-23.369
0
LINE
8
0
10
70.5926261
20
-23.4832612
11
86.7356451
21
-26.896901
0
LINE
8
0
10
86.7356451
20
-26.896901
11
90.1492849
21
-10.753882
0
LINE
8
0
10
90.1492849
20
-10.753882
11
74.0062659
21
-7.3402422
0
LINE
8
0
10
74.0062659
20
-7.3402422
11
70.5926261
21
-23.4832612
0
LINE
8
0
10
87.7809927
20
-27.2347407
11
102.8685155
21
-33.9143107
0
LINE
8
0
10
102.8685155
20
-33.9143107
11
109.5480855
21
-18.8267879
0
LINE
8
0
10
109.5480855
20
-18.8267879
11
94.4605627
21
-12.1472179
0
LINE
8
0
10
94.4605627
20
-12.1472179
11
87.7809927
21
-27.2347407
0
LINE
8
0
10
-7.5
20
-7.5
11
7.5
21
-7.5
0
LINE
8
0
10
7.5
20
-7.5
11
7.5
21
7.5
0
LINE
8
0
10
7.5
20
7.5
11
-7.5
21
7.5
0
LINE
8
0
10
-7.5
20
7.5
11
-7.5
21
-7.5
0
LINE
8
0
10
-7.5
20
10
11
7.5
21
10
0
LINE
8
0
10
7.5
20
10
11
7.5
21
25
0
LINE
8
0
10
7.5
20
25
11
-7.5
21
25
0
LINE
8
0
10
-7.5
20
25
11
-7.5
21
10
0
LINE
8
0
10
-7.5
20
27.5
11
7.5
21
27.5
0
LINE
8
0
10
7.5
20
27.5
11
7.5
21
42.5
0
LINE
8
0
10
7.5
20
42.5
11
-7.5
21
42.5
0
LINE
8
0
10
-7.5
20
42.5
11
-7.5
21
27.5
0
LINE
8
0
10
10
20
-7.5
11
25
21
-7.5
0
LINE
8
0
10
25
20
-7.5
11
25
21
7.5
0
LINE
8
0
10
25
20
7.5
11
10
21
7.5
0
LINE
8
0
10
10
20
7.5
11
10
21
-7.5
0
LINE
8
0
10
10
20
10
11
25
21
10
0
LINE
8
0
10
25
20
10
11
25
21
25
0
LINE
8
0
10
25
20
25
11
10
21
25
0
LINE
8
0
10
10
20
25
11
10
21
10
0
LINE
8
0
10
10
20
27.5
11
25
21
27.5
0
LINE
8
0
10
25
20
27.5
11
25
21
42.5
0
LINE
8
0
10
25
20
42.5
11
10
21
42.5
0
LINE
8
0
10
10
20
42.5
11
10
21
27.5
0
LINE
8
0
10
27.5
20
-2.738
11
42.5
21
-2.738
0
LINE
8
0
10
42.5
20
-2.738
11
42.5
21
12.262
0
LINE
8
0
10
42.5
20
12.262
11
27.5
21
12.262
0
LINE
8
0
10
27.5
20
12.262
11
27.5
21
-2.738
0
LINE
8
0
10
27.5
20
14.762
11
42.5
21
14.762
0
LINE
8
0
10
42.5
20
14.762
11
42.5
21
29.762
0
LINE
8
0
10
42.5
20
29.762
11
27.5
21
29.762
0
LINE
8
0
10
27.5
20
29.762
11
27.5
21
14.762
0
LINE
8
0
10
27.5
20
32.262
11
42.5
21
32.262
0
LINE
8
0
10
42.5
20
32.262
11
42.5
21
47.262
0
LINE
8
0
10
42.5
20
47.262
11
27.5
21
47.262
0
LINE
8
0
10
27.5
20
47.262
11
27.5
21
32.262
0
LINE
8
0
10
45
20
-0.357
11
60
21
-0.357
0
LINE
8
0
10
60
20
-0.357
11
60
21
14.643
0
LINE
8
0
10
60
20
14.643
11
45
21
14.643
0
LINE
8
0
10
45
20
14.643
11
45
21
-0.357
0
LINE
8
0
10
45
20
17.143
11
60
21
17.143
0
LINE
8
0
10
60
20
17.143
11
60
21
32.143
0
LINE
8
0
10
60
20
32.143
11
45
21
32.143
0
LINE
8
0
10
45
20
32.143
11
45
21
17.143
0
LINE
8
0
10
45
20
34.643
11
60
21
34.643
0
LINE
8
0
10
60
20
34.643
11
60
21
49.643
0
LINE
8
0
10
60
20
49.643
11
45
21
49.643
0
LINE
8
0
10
45
20
49.643
11
45
21
34.643
0
LINE
8
0
10
62.5
20
-2.738
11
77.5
21
-2.738
0
LINE
8
0
10
77.5
20
-2.738
11
77.5
21
12.262
0
LINE
8
0
10
77.5
20
12.262
11
62.5
21
12.262
0
LINE
8
0
10
62.5
20
12.262
11
62.5
21
-2.738
0
LINE
8
0
10
62.5
20
14.762
11
77.5
21
14.762
0
LINE
8
0
10
77.5
20
14.762
11
77.5
21
29.762
0
LINE
8
0
10
77.5
20
29.762
11
62.5
21
29.762
0
LINE
8
0
10
62.5
20
29.762
11
62.5
21
14.762
0
LINE
8
0
10
62.5
20
32.262
11
77.5
21
32.262
0
LINE
8
0
10
77.5
20
32.262
11
77.5
21
47.262
0
LINE
8
0
10
77.5
20
47.262
11
62.5
21
47.262
0
LINE
8
0
10
62.5
20
47.262
11
62.5
21
32.262
0
LINE
8
0
10
80
20
-5.119
11
95
21
-5.119
0
LINE
8
0
10
95
20
-5.119
11
95
21
9.881
0
LINE
8
0
10
95
20
9.881
11
80
21
9.881
0
LINE
8
0
10
80
20
9.881
11
80
21
-5.119
0
LINE
8
0
10
80
20
12.381
11
95
21
12.381
0
LINE
8
0
10
95
20
12.381
11
95
21
27.381
0
LINE
8
0
10
95
20
27.381
11
80
21
27.381
0
LINE
8
0
10
80
20
27.381
11
80
21
12.381
0
LINE
8
0
10
80
20
29.881
11
95
21
29.881
0
LINE
8
0
10
95
20
29.881
11
95
21
44.881
0
LINE
8
0
10
95
20
44.881
11
80
21
44.881
0
LINE
8
0
10
80
20
44.881
11
80
21
29.881
0
LINE
8
0
10
53.75
20
-22.619
11
68.75
21
-22.619
0
LINE
8
0
10
68.75
20
-22.619
11
68.75
21
-7.619
0
LINE
8
0
10
68.75
20
-7.619
11
53.75
21
-7.619
0
LINE
8
0
10
53.75
20
-7.619
11
53.75
21
-22.619
0
LINE
8
0
10
71.4815651
20
-22.904653
11
86.1570369
21
-26.007962
0
LINE
8
0
10
86.1570369
20
-26.007962
11
89.2603459
21
-11.3324902
0
LINE
8
0
10
89.2603459
20
-11.3324902
11
74.5848741
21
-8.2291812
0
LINE
8
0
10
74.5848741
20
-8.2291812
11
71.4815651
21
-22.904653
0
LINE
8
0
10
88.770406
20
-26.852561
11
102.4863358
21
-32.9248974
0
LINE
8
0
10
102.4863358
20
-32.9248974
11
108.5586722
21
-19.2089676
0
LINE
8
0
10
108.5586722
20
-19.2089676
11
94.8427424
21
-13.1366312
0
LINE
8
0
10
94.8427424
20
-13.1366312
11
88.770406
21
-26.852561
0
ENDSEC
0
EOF