0
SECTION
2
HEADER
9
$INSUNITS
70
4
0
ENDSEC
0
SECTION
2
TABLES
0
TABLE
2
LTYPE
0
LTYPE
72
65
70
64
2
CONTINUOUS
3
______
73
0
40
0
0
ENDTAB
0
TABLE
2
LAYER
0
ENDTAB
0
ENDSEC
0
SECTION
2
ENTITIES
0
LINE
8
0
10
-8.25
20
-8.25
11
8.25
21
-8.25
0
LINE
8
0
10
8.25
20
-8.25
11
8.25
21
8.25
0
LINE
8
0
10
8.25
20
8.25
11
-8.25
21
8.25
0
LINE
8
0
10
-8.25
20
8.25
11
-8.25
21
-8.25
0
LINE
8
0
10
-8.25
20
9.25
11
8.25
21
9.25
0
LINE
8
0
10
8.25
20
9.25
11
8.25
21
25.75
0
LINE
8
0
10
8.25
20
25.75
11
-8.25
21
25.75
0
LINE
8
0
10
-8.25
20
25.75
11
-8.25
21
9.25
0
LINE
8
0
10
-8.25
20
26.75
11
8.25
21
26.75
0
LINE
8
0
10
8.25
20
26.75
11
8.25
21
43.25
0
LINE
8
0
10
8.25
20
43.25
11
-8.25
21
43.25
0
LINE
8
0
10
-8.25
20
43.25
11
-8.25
21
26.75
0
LINE
8
0
10
9.25
20
-8.25
11
25.75
21
-8.25
0
LINE
8
0
10
25.75
20
-8.25
11
25.75
21
8.25
0
LINE
8
0
10
25.75
20
8.25
11
9.25
21
8.25
0
LINE
8
0
10
9.25
20
8.25
11
9.25
21
-8.25
0
LINE
8
0
10
9.25
20
9.25
11
25.75
21
9.25
0
LINE
8
0
10
25.75
20
9.25
11
25.75
21
25.75
0
LINE
8
0
10
25.75
20
25.75
11
9.25
21
25.75
0
LINE
8
0
10
9.25
20
25.75
11
9.25
21
9.25
0
LINE
8
0
10
9.25
20
26.75
11
25.75
21
26.75
0
LINE
8
0
10
25.75
20
26.75
11
25.75
21
43.25
0
LINE
8
0
10
25.75
20
43.25
11
9.25
21
43.25
0
LINE
8
0
10
9.25
20
43.25
11
9.25
21
26.75
0
LINE
8
0
10
26.75
20
-3.488
11
43.25
21
-3.488
0
LINE
8
0
10
43.25
20
-3.488
11
43.25
21
13.012
0
LINE
8
0
10
43.25
20
13.012
11
26.75
21
13.012
0
LINE
8
0
10
26.75
20
13.012
11
26.75
21
-3.488
0
LINE
8
0
10
26.75
20
14.012
11
43.25
21
14.012
0
LINE
8
0
10
43.25
20
14.012
11
43.25
21
30.512
0
LINE
8
0
10
43.25
20
30.512
11
26.75
21
30.512
0
LINE
8
0
10
26.75
20
30.512
11
26.75
21
14.012
0
LINE
8
0
10
26.75
20
31.512
11
43.25
21
31.512
0
LINE
8
0
10
43.25
20
31.512
11
43.25
21
48.012
0
LINE
8
0
10
43.25
20
48.012
11
26.75
21
48.012
0
LINE
8
0
10
26.75
20
48.012
11
26.75
21
31.512
0
LINE
8
0
10
44.25
20
-1.107
11
60.75
21
-1.107
0
LINE
8
0
10
60.75
20
-1.107
11
60.75
21
15.393
0
LINE
8
0
10
60.75
20
15.393
11
44.25
21
15.393
0
LINE
8
0
10
44.25
20
15.393
11
44.25
21
-1.107
0
LINE
8
0
10
44.25
20
16.393
11
60.75
21
16.393
0
LINE
8
0
10
60.75
20
16.393
11
60.75
21
32.893
0
LINE
8
0
10
60.75
20
32.893
11
44.25
21
32.893
0
LINE
8
0
10
44.25
20
32.893
11
44.25
21
16.393
0
LINE
8
0
10
44.25
20
33.893
11
60.75
21
33.893
0
LINE
8
0
10
60.75
20
33.893
11
60.75
21
50.393
0
LINE
8
0
10
60.75
20
50.393
11
44.25
21
50.393
0
LINE
8
0
10
44.25
20
50.393
11
44.25
21
33.893
0
LINE
8
0
10
61.75
20
-3.488
11
78.25
21
-3.488
0
LINE
8
0
10
78.25
20
-3.488
11
78.25
21
13.012
0
LINE
8
0
10
78.25
20
13.012
11
61.75
21
13.012
0
LINE
8
0
10
61.75
20
13.012
11
61.75
21
-3.488
0
LINE
8
0
10
61.75
20
14.012
11
78.25
21
14.012
0
LINE
8
0
10
78.25
20
14.012
11
78.25
21
30.512
0
LINE
8
0
10
78.25
20
30.512
11
61.75
21
30.512
0
LINE
8
0
10
61.75
20
30.512
11
61.75
21
14.012
0
LINE
8
0
10
61.75
20
31.512
11
78.25
21
31.512
0
LINE
8
0
10
78.25
20
31.512
11
78.25
21
48.012
0
LINE
8
0
10
78.25
20
48.012
11
61.75
21
48.012
0
LINE
8
0
10
61.75
20
48.012
11
61.75
21
31.512
0
LINE
8
0
10
79.25
20
-5.869
11
95.75
21
-5.869
0
LINE
8
0
10
95.75
20
-5.869
11
95.75
21
10.631
0
LINE
8
0
10
95.75
20
10.631
11
79.25
21
10.631
0
LINE
8
0
10
79.25
20
10.631
11
79.25
21
-5.869
0
LINE
8
0
10
79.25
20
11.631
11
95.75
21
11.631
0
LINE
8
0
10
95.75
20
11.631
11
95.75
21
28.131
0
LINE
8
0
10
95.75
20
28.131
11
79.25
21
28.131
0
LINE
8
0
10
79.25
20
28.131
11
79.25
21
11.631
0
LINE
8
0
10
79.25
20
29.131
11
95.75
21
29.131
0
LINE
8
0
10
95.75
20
29.131
11
95.75
21
45.631
0
LINE
8
0
10
95.75
20
45.631
11
79.25
21
45.631
0
LINE
8
0
10
79.25
20
45.631
11
79.25
21
29.131
0
LINE
8
0
10
53
20
-23.369
11
69.5
21
-23.369
0
LINE
8
0
10
69.5
20
-23.369
11
69.5
21
-6.869
0
LINE
8
0
10
69.5
20
-6.869
11
53
21
-6.869
0
LINE
8
0
10
53
20
-6.869
11
53
21
-23.369
0
LINE
8
0
10
70.5926261
20
-23.4832612
11
86.7356451
21
-26.896901
0
LINE
8
0
10
86.7356451
20
-26.896901
11
90.1492849
21
-10.753882
0
LINE
8
0
10
90.1492849
20
-10.753882
11
74.0062659
21
-7.3402422
0
LINE
8
0
10
74.0062659
20
-7.3402422
11
70.5926261
21
-23.4832612
0
LINE
8
0
10
87.7809927
20
-27.2347407
11
102.8685155
21
-33.9143107
0
LINE
8
0
10
102.8685155
20
-33.9143107
11
109.5480855
21
-18.8267879
0
LINE
8
0
10
109.5480855
20
-18.8267879
11
94.4605627
21
-12.1472179
0
LINE
8
0
10
94.4605627
20
-12.1472179
11
87.7809927
21
-27.2347407
0
LINE
8
0
10
97.75
20
10.25
11
115.53
21
10.25
0
LINE
8
0
10
115.53
20
10.25
11
115.53
21
43.25
0
LINE
8
0
10
115.53
20
43.25
11
97.75
21
43.25
0
LINE
8
0
10
97.75
20
43.25
11
97.75
21
10.25
0
CIRCLE
8
0
10
17.5
20
0
40
1
0
CIRCLE
8
0
10
87.5
20
2.381
40
1
0
CIRCLE
8
0
10
61.25
20
-15.119
40
1
0
CIRCLE
8
0
10
80.3709555
20
-17.1185716
40
1
0
CIRCLE
8
0
10
98.6645391
20
-23.0307643
40
1
0
CIRCLE
8
0
10
87.5
20
37.381
40
1
0
CIRCLE
8
0
10
106.64
20
26.75
40
1
0
CIRCLE
8
0
10
96.75
20
-6.869
40
1
0
CIRCLE
8
0
10
52
20
-24.369
40
1
0
CIRCLE
8
0
10
87.5071226
20
-28.0821531
40
1
0
CIRCLE
8
0
10
103.3780884
20
-35.2335285
40
1
0
CIRCLE
8
0
10
86.4617749
20
-27.7443136
40
1
0
CIRCLE
8
0
10
110.8673033
20
-18.317215
40
1
0
CIRCLE
8
0
10
116.53
20
9.25
40
1
0
CIRCLE
8
0
10
116.53
20
44.25
40
1
0
CIRCLE
8
0
10
96.75
20
44.25
40
1
0
CIRCLE
8
0
10
87.1375839
20
-28.0435087
40
1
0
CIRCLE
8
0
10
116.53
20
-5.5265615
40
1
0
ENDSEC
0
EOF