0
SECTION
2
HEADER
9
$INSUNITS
70
4
0
ENDSEC
0
SECTION
2
TABLES
0
TABLE
2
LTYPE
0
LTYPE
72
65
70
64
2
CONTINUOUS
3
______
73
0
40
0
0
ENDTAB
0
TABLE
2
LAYER
0
ENDTAB
0
ENDSEC
0
SECTION
2
ENTITIES
0
LINE
8
0
10
-7.5
20
-7.5
11
7.5
21
-7.5
0
LINE
8
0
10
7.5
20
-7.5
11
7.5
21
7.5
0
LINE
8
0
10
7.5
20
7.5
11
-7.5
21
7.5
0
LINE
8
0
10
-7.5
20
7.5
11
-7.5
21
-7.5
0
LINE
8
0
10
-7.5
20
10
11
7.5
21
10
0
LINE
8
0
10
7.5
20
10
11
7.5
21
25
0
LINE
8
0
10
7.5
20
25
11
-7.5
21
25
0
LINE
8
0
10
-7.5
20
25
11
-7.5
21
10
0
LINE
8
0
10
-7.5
20
27.5
11
7.5
21
27.5
0
LINE
8
0
10
7.5
20
27.5
11
7.5
21
42.5
0
LINE
8
0
10
7.5
20
42.5
11
-7.5
21
42.5
0
LINE
8
0
10
-7.5
20
42.5
11
-7.5
21
27.5
0
LINE
8
0
10
10
20
-7.5
11
25
21
-7.5
0
LINE
8
0
10
25
20
-7.5
11
25
21
7.5
0
LINE
8
0
10
25
20
7.5
11
10
21
7.5
0
LINE
8
0
10
10
20
7.5
11
10
21
-7.5
0
LINE
8
0
10
10
20
10
11
25
21
10
0
LINE
8
0
10
25
20
10
11
25
21
25
0
LINE
8
0
10
25
20
25
11
10
21
25
0
LINE
8
0
10
10
20
25
11
10
21
10
0
LINE
8
0
10
10
20
27.5
11
25
21
27.5
0
LINE
8
0
10
25
20
27.5
11
25
21
42.5
0
LINE
8
0
10
25
20
42.5
11
10
21
42.5
0
LINE
8
0
10
10
20
42.5
11
10
21
27.5
0
LINE
8
0
10
27.5
20
-2.738
11
42.5
21
-2.738
0
LINE
8
0
10
42.5
20
-2.738
11
42.5
21
12.262
0
LINE
8
0
10
42.5
20
12.262
11
27.5
21
12.262
0
LINE
8
0
10
27.5
20
12.262
11
27.5
21
-2.738
0
LINE
8
0
10
27.5
20
14.762
11
42.5
21
14.762
0
LINE
8
0
10
42.5
20
14.762
11
42.5
21
29.762
0
LINE
8
0
10
42.5
20
29.762
11
27.5
21
29.762
0
LINE
8
0
10
27.5
20
29.762
11
27.5
21
14.762
0
LINE
8
0
10
27.5
20
32.262
11
42.5
21
32.262
0
LINE
8
0
10
42.5
20
32.262
11
42.5
21
47.262
0
LINE
8
0
10
42.5
20
47.262
11
27.5
21
47.262
0
LINE
8
0
10
27.5
20
47.262
11
27.5
21
32.262
0
LINE
8
0
10
45
20
-0.357
11
60
21
-0.357
0
LINE
8
0
10
60
20
-0.357
11
60
21
14.643
0
LINE
8
0
10
60
20
14.643
11
45
21
14.643
0
LINE
8
0
10
45
20
14.643
11
45
21
-0.357
0
LINE
8
0
10
45
20
17.143
11
60
21
17.143
0
LINE
8
0
10
60
20
17.143
11
60
21
32.143
0
LINE
8
0
10
60
20
32.143
11
45
21
32.143
0
LINE
8
0
10
45
20
32.143
11
45
21
17.143
0
LINE
8
0
10
45
20
34.643
11
60
21
34.643
0
LINE
8
0
10
60
20
34.643
11
60
21
49.643
0
LINE
8
0
10
60
20
49.643
11
45
21
49.643
0
LINE
8
0
10
45
20
49.643
11
45
21
34.643
0
LINE
8
0
10
62.5
20
-2.738
11
77.5
21
-2.738
0
LINE
8
0
10
77.5
20
-2.738
11
77.5
21
12.262
0
LINE
8
0
10
77.5
20
12.262
11
62.5
21
12.262
0
LINE
8
0
10
62.5
20
12.262
11
62.5
21
-2.738
0
LINE
8
0
10
62.5
20
14.762
11
77.5
21
14.762
0
LINE
8
0
10
77.5
20
14.762
11
77.5
21
29.762
0
LINE
8
0
10
77.5
20
29.762
11
62.5
21
29.762
0
LINE
8
0
10
62.5
20
29.762
11
62.5
21
14.762
0
LINE
8
0
10
62.5
20
32.262
11
77.5
21
32.262
0
LINE
8
0
10
77.5
20
32.262
11
77.5
21
47.262
0
LINE
8
0
10
77.5
20
47.262
11
62.5
21
47.262
0
LINE
8
0
10
62.5
20
47.262
11
62.5
21
32.262
0
LINE
8
0
10
80
20
-5.119
11
95
21
-5.119
0
LINE
8
0
10
95
20
-5.119
11
95
21
9.881
0
LINE
8
0
10
95
20
9.881
11
80
21
9.881
0
LINE
8
0
10
80
20
9.881
11
80
21
-5.119
0
LINE
8
0
10
80
20
12.381
11
95
21
12.381
0
LINE
8
0
10
95
20
12.381
11
95
21
27.381
0
LINE
8
0
10
95
20
27.381
11
80
21
27.381
0
LINE
8
0
10
80
20
27.381
11
80
21
12.381
0
LINE
8
0
10
80
20
29.881
11
95
21
29.881
0
LINE
8
0
10
95
20
29.881
11
95
21
44.881
0
LINE
8
0
10
95
20
44.881
11
80
21
44.881
0
LINE
8
0
10
80
20
44.881
11
80
21
29.881
0
LINE
8
0
10
53.75
20
-22.619
11
68.75
21
-22.619
0
LINE
8
0
10
68.75
20
-22.619
11
68.75
21
-7.619
0
LINE
8
0
10
68.75
20
-7.619
11
53.75
21
-7.619
0
LINE
8
0
10
53.75
20
-7.619
11
53.75
21
-22.619
0
LINE
8
0
10
71.4815651
20
-22.904653
11
86.1570369
21
-26.007962
0
LINE
8
0
10
86.1570369
20
-26.007962
11
89.2603459
21
-11.3324902
0
LINE
8
0
10
89.2603459
20
-11.3324902
11
74.5848741
21
-8.2291812
0
LINE
8
0
10
74.5848741
20
-8.2291812
11
71.4815651
21
-22.904653
0
LINE
8
0
10
104.1562283
20
-29.1530167
11
110.2285647
21
-15.4370869
0
LINE
8
0
10
110.2285647
20
-15.4370869
11
96.5126349
21
-9.3647505
0
LINE
8
0
10
96.5126349
20
-9.3647505
11
90.4402985
21
-23.0806803
0
LINE
8
0
10
90.4402985
20
-23.0806803
11
104.1562283
21
-29.1530167
0
ENDSEC
0
EOF