0
SECTION
2
HEADER
9
$INSUNITS
70
4
0
ENDSEC
0
SECTION
2
TABLES
0
TABLE
2
LTYPE
0
LTYPE
72
65
70
64
2
CONTINUOUS
3
______
73
0
40
0
0
ENDTAB
0
TABLE
2
LAYER
0
ENDTAB
0
ENDSEC
0
SECTION
2
ENTITIES
0
LINE
8
0
10
-7.5
20
-7.5
11
7.5
21
-7.5
0
LINE
8
0
10
7.5
20
-7.5
11
7.5
21
7.5
0
LINE
8
0
10
7.5
20
7.5
11
-7.5
21
7.5
0
LINE
8
0
10
-7.5
20
7.5
11
-7.5
21
-7.5
0
LINE
8
0
10
-7.5
20
10
11
7.5
21
10
0
LINE
8
0
10
7.5
20
10
11
7.5
21
25
0
LINE
8
0
10
7.5
20
25
11
-7.5
21
25
0
LINE
8
0
10
-7.5
20
25
11
-7.5
21
10
0
LINE
8
0
10
-7.5
20
27.5
11
7.5
21
27.5
0
LINE
8
0
10
7.5
20
27.5
11
7.5
21
42.5
0
LINE
8
0
10
7.5
20
42.5
11
-7.5
21
42.5
0
LINE
8
0
10
-7.5
20
42.5
11
-7.5
21
27.5
0
LINE
8
0
10
10
20
-7.5
11
25
21
-7.5
0
LINE
8
0
10
25
20
-7.5
11
25
21
7.5
0
LINE
8
0
10
25
20
7.5
11
10
21
7.5
0
LINE
8
0
10
10
20
7.5
11
10
21
-7.5
0
LINE
8
0
10
10
20
10
11
25
21
10
0
LINE
8
0
10
25
20
10
11
25
21
25
0
LINE
8
0
10
25
20
25
11
10
21
25
0
LINE
8
0
10
10
20
25
11
10
21
10
0
LINE
8
0
10
10
20
27.5
11
25
21
27.5
0
LINE
8
0
10
25
20
27.5
11
25
21
42.5
0
LINE
8
0
10
25
20
42.5
11
10
21
42.5
0
LINE
8
0
10
10
20
42.5
11
10
21
27.5
0
LINE
8
0
10
27.5
20
-2.738
11
42.5
21
-2.738
0
LINE
8
0
10
42.5
20
-2.738
11
42.5
21
12.262
0
LINE
8
0
10
42.5
20
12.262
11
27.5
21
12.262
0
LINE
8
0
10
27.5
20
12.262
11
27.5
21
-2.738
0
LINE
8
0
10
27.5
20
14.762
11
42.5
21
14.762
0
LINE
8
0
10
42.5
20
14.762
11
42.5
21
29.762
0
LINE
8
0
10
42.5
20
29.762
11
27.5
21
29.762
0
LINE
8
0
10
27.5
20
29.762
11
27.5
21
14.762
0
LINE
8
0
10
27.5
20
32.262
11
42.5
21
32.262
0
LINE
8
0
10
42.5
20
32.262
11
42.5
21
47.262
0
LINE
8
0
10
42.5
20
47.262
11
27.5
21
47.262
0
LINE
8
0
10
27.5
20
47.262
11
27.5
21
32.262
0
LINE
8
0
10
45
20
-0.357
11
60
21
-0.357
0
LINE
8
0
10
60
20
-0.357
11
60
21
14.643
0
LINE
8
0
10
60
20
14.643
11
45
21
14.643
0
LINE
8
0
10
45
20
14.643
11
45
21
-0.357
0
LINE
8
0
10
45
20
17.143
11
60
21
17.143
0
LINE
8
0
10
60
20
17.143
11
60
21
32.143
0
LINE
8
0
10
60
20
32.143
11
45
21
32.143
0
LINE
8
0
10
45
20
32.143
11
45
21
17.143
0
LINE
8
0
10
45
20
34.643
11
60
21
34.643
0
LINE
8
0
10
60
20
34.643
11
60
21
49.643
0
LINE
8
0
10
60
20
49.643
11
45
21
49.643
0
LINE
8
0
10
45
20
49.643
11
45
21
34.643
0
LINE
8
0
10
62.5
20
-2.738
11
77.5
21
-2.738
0
LINE
8
0
10
77.5
20
-2.738
11
77.5
21
12.262
0
LINE
8
0
10
77.5
20
12.262
11
62.5
21
12.262
0
LINE
8
0
10
62.5
20
12.262
11
62.5
21
-2.738
0
LINE
8
0
10
62.5
20
14.762
11
77.5
21
14.762
0
LINE
8
0
10
77.5
20
14.762
11
77.5
21
29.762
0
LINE
8
0
10
77.5
20
29.762
11
62.5
21
29.762
0
LINE
8
0
10
62.5
20
29.762
11
62.5
21
14.762
0
LINE
8
0
10
62.5
20
32.262
11
77.5
21
32.262
0
LINE
8
0
10
77.5
20
32.262
11
77.5
21
47.262
0
LINE
8
0
10
77.5
20
47.262
11
62.5
21
47.262
0
LINE
8
0
10
62.5
20
47.262
11
62.5
21
32.262
0
LINE
8
0
10
80
20
-5.119
11
95
21
-5.119
0
LINE
8
0
10
95
20
-5.119
11
95
21
9.881
0
LINE
8
0
10
95
20
9.881
11
80
21
9.881
0
LINE
8
0
10
80
20
9.881
11
80
21
-5.119
0
LINE
8
0
10
80
20
12.381
11
95
21
12.381
0
LINE
8
0
10
95
20
12.381
11
95
21
27.381
0
LINE
8
0
10
95
20
27.381
11
80
21
27.381
0
LINE
8
0
10
80
20
27.381
11
80
21
12.381
0
LINE
8
0
10
80
20
29.881
11
95
21
29.881
0
LINE
8
0
10
95
20
29.881
11
95
21
44.881
0
LINE
8
0
10
95
20
44.881
11
80
21
44.881
0
LINE
8
0
10
80
20
44.881
11
80
21
29.881
0
LINE
8
0
10
54.25
20
-22.619
11
69.25
21
-22.619
0
LINE
8
0
10
69.25
20
-22.619
11
69.25
21
-7.619
0
LINE
8
0
10
69.25
20
-7.619
11
54.25
21
-7.619
0
LINE
8
0
10
54.25
20
-7.619
11
54.25
21
-22.619
0
LINE
8
0
10
71.9815651
20
-22.904653
11
86.6570369
21
-26.007962
0
LINE
8
0
10
86.6570369
20
-26.007962
11
89.7603459
21
-11.3324902
0
LINE
8
0
10
89.7603459
20
-11.3324902
11
75.0848741
21
-8.2291812
0
LINE
8
0
10
75.0848741
20
-8.2291812
11
71.9815651
21
-22.904653
0
LINE
8
0
10
89.270406
20
-26.852561
11
102.9863358
21
-32.9248974
0
LINE
8
0
10
102.9863358
20
-32.9248974
11
109.0586722
21
-19.2089676
0
LINE
8
0
10
109.0586722
20
-19.2089676
11
95.3427424
21
-13.1366312
0
LINE
8
0
10
95.3427424
20
-13.1366312
11
89.270406
21
-26.852561
0
ENDSEC
0
EOF