0
SECTION
2
HEADER
9
$INSUNITS
70
4
0
ENDSEC
0
SECTION
2
TABLES
0
TABLE
2
LTYPE
0
LTYPE
72
65
70
64
2
CONTINUOUS
3
______
73
0
40
0
0
ENDTAB
0
TABLE
2
LAYER
0
ENDTAB
0
ENDSEC
0
SECTION
2
ENTITIES
0
LINE
8
0
10
-8.25
20
-8.25
11
8.25
21
-8.25
0
LINE
8
0
10
8.25
20
-8.25
11
8.25
21
8.25
0
LINE
8
0
10
8.25
20
8.25
11
-8.25
21
8.25
0
LINE
8
0
10
-8.25
20
8.25
11
-8.25
21
-8.25
0
LINE
8
0
10
-8.25
20
9.25
11
8.25
21
9.25
0
LINE
8
0
10
8.25
20
9.25
11
8.25
21
25.75
0
LINE
8
0
10
8.25
20
25.75
11
-8.25
21
25.75
0
LINE
8
0
10
-8.25
20
25.75
11
-8.25
21
9.25
0
LINE
8
0
10
-8.25
20
26.75
11
8.25
21
26.75
0
LINE
8
0
10
8.25
20
26.75
11
8.25
21
43.25
0
LINE
8
0
10
8.25
20
43.25
11
-8.25
21
43.25
0
LINE
8
0
10
-8.25
20
43.25
11
-8.25
21
26.75
0
LINE
8
0
10
9.25
20
-8.25
11
25.75
21
-8.25
0
LINE
8
0
10
25.75
20
-8.25
11
25.75
21
8.25
0
LINE
8
0
10
25.75
20
8.25
11
9.25
21
8.25
0
LINE
8
0
10
9.25
20
8.25
11
9.25
21
-8.25
0
LINE
8
0
10
9.25
20
9.25
11
25.75
21
9.25
0
LINE
8
0
10
25.75
20
9.25
11
25.75
21
25.75
0
LINE
8
0
10
25.75
20
25.75
11
9.25
21
25.75
0
LINE
8
0
10
9.25
20
25.75
11
9.25
21
9.25
0
LINE
8
0
10
9.25
20
26.75
11
25.75
21
26.75
0
LINE
8
0
10
25.75
20
26.75
11
25.75
21
43.25
0
LINE
8
0
10
25.75
20
43.25
11
9.25
21
43.25
0
LINE
8
0
10
9.25
20
43.25
11
9.25
21
26.75
0
LINE
8
0
10
26.75
20
-3.488
11
43.25
21
-3.488
0
LINE
8
0
10
43.25
20
-3.488
11
43.25
21
13.012
0
LINE
8
0
10
43.25
20
13.012
11
26.75
21
13.012
0
LINE
8
0
10
26.75
20
13.012
11
26.75
21
-3.488
0
LINE
8
0
10
26.75
20
14.012
11
43.25
21
14.012
0
LINE
8
0
10
43.25
20
14.012
11
43.25
21
30.512
0
LINE
8
0
10
43.25
20
30.512
11
26.75
21
30.512
0
LINE
8
0
10
26.75
20
30.512
11
26.75
21
14.012
0
LINE
8
0
10
26.75
20
31.512
11
43.25
21
31.512
0
LINE
8
0
10
43.25
20
31.512
11
43.25
21
48.012
0
LINE
8
0
10
43.25
20
48.012
11
26.75
21
48.012
0
LINE
8
0
10
26.75
20
48.012
11
26.75
21
31.512
0
LINE
8
0
10
44.25
20
-1.107
11
60.75
21
-1.107
0
LINE
8
0
10
60.75
20
-1.107
11
60.75
21
15.393
0
LINE
8
0
10
60.75
20
15.393
11
44.25
21
15.393
0
LINE
8
0
10
44.25
20
15.393
11
44.25
21
-1.107
0
LINE
8
0
10
44.25
20
16.393
11
60.75
21
16.393
0
LINE
8
0
10
60.75
20
16.393
11
60.75
21
32.893
0
LINE
8
0
10
60.75
20
32.893
11
44.25
21
32.893
0
LINE
8
0
10
44.25
20
32.893
11
44.25
21
16.393
0
LINE
8
0
10
44.25
20
33.893
11
60.75
21
33.893
0
LINE
8
0
10
60.75
20
33.893
11
60.75
21
50.393
0
LINE
8
0
10
60.75
20
50.393
11
44.25
21
50.393
0
LINE
8
0
10
44.25
20
50.393
11
44.25
21
33.893
0
LINE
8
0
10
61.75
20
-3.488
11
78.25
21
-3.488
0
LINE
8
0
10
78.25
20
-3.488
11
78.25
21
13.012
0
LINE
8
0
10
78.25
20
13.012
11
61.75
21
13.012
0
LINE
8
0
10
61.75
20
13.012
11
61.75
21
-3.488
0
LINE
8
0
10
61.75
20
14.012
11
78.25
21
14.012
0
LINE
8
0
10
78.25
20
14.012
11
78.25
21
30.512
0
LINE
8
0
10
78.25
20
30.512
11
61.75
21
30.512
0
LINE
8
0
10
61.75
20
30.512
11
61.75
21
14.012
0
LINE
8
0
10
61.75
20
31.512
11
78.25
21
31.512
0
LINE
8
0
10
78.25
20
31.512
11
78.25
21
48.012
0
LINE
8
0
10
78.25
20
48.012
11
61.75
21
48.012
0
LINE
8
0
10
61.75
20
48.012
11
61.75
21
31.512
0
LINE
8
0
10
79.25
20
-5.869
11
95.75
21
-5.869
0
LINE
8
0
10
95.75
20
-5.869
11
95.75
21
10.631
0
LINE
8
0
10
95.75
20
10.631
11
79.25
21
10.631
0
LINE
8
0
10
79.25
20
10.631
11
79.25
21
-5.869
0
LINE
8
0
10
79.25
20
11.631
11
95.75
21
11.631
0
LINE
8
0
10
95.75
20
11.631
11
95.75
21
28.131
0
LINE
8
0
10
95.75
20
28.131
11
79.25
21
28.131
0
LINE
8
0
10
79.25
20
28.131
11
79.25
21
11.631
0
LINE
8
0
10
79.25
20
29.131
11
95.75
21
29.131
0
LINE
8
0
10
95.75
20
29.131
11
95.75
21
45.631
0
LINE
8
0
10
95.75
20
45.631
11
79.25
21
45.631
0
LINE
8
0
10
79.25
20
45.631
11
79.25
21
29.131
0
LINE
8
0
10
53
20
-23.369
11
69.5
21
-23.369
0
LINE
8
0
10
69.5
20
-23.369
11
69.5
21
-6.869
0
LINE
8
0
10
69.5
20
-6.869
11
53
21
-6.869
0
LINE
8
0
10
53
20
-6.869
11
53
21
-23.369
0
LINE
8
0
10
70.5
20
-23.369
11
87
21
-23.369
0
LINE
8
0
10
87
20
-23.369
11
87
21
-6.869
0
LINE
8
0
10
87
20
-6.869
11
70.5
21
-6.869
0
LINE
8
0
10
70.5
20
-6.869
11
70.5
21
-23.369
0
LINE
8
0
10
88
20
-23.369
11
103.7679492
21
-23.369
0
LINE
8
0
10
104.5
20
-22.6369492
11
104.5
21
-6.869
0
LINE
8
0
10
104.5
20
-6.869
11
88
21
-6.869
0
LINE
8
0
10
88
20
-6.869
11
88
21
-23.369
0
LINE
8
0
10
97.75
20
10.25
11
115.53
21
10.25
0
LINE
8
0
10
115.53
20
10.25
11
115.53
21
43.25
0
LINE
8
0
10
115.53
20
43.25
11
97.75
21
43.25
0
LINE
8
0
10
97.75
20
43.25
11
97.75
21
10.25
0
ARC
8
0
10
105.5
20
-24.369
40
2
50
480.0000001
51
509.9999999
0
ENDSEC
0
EOF